<svg width="48" height="48" viewBox="0 0 48 48" fill="none" xmlns="http://www.w3.org/2000/svg">
<rect width="48" height="48" rx="8" fill="#42CC58" fill-opacity="0.15"/>
<path d="M33.7406 31.875C32.3412 29.4643 30.1012 27.6549 27.45 26.7938C28.7208 26.0381 29.7083 24.8861 30.2608 23.5148C30.8134 22.1435 30.9005 20.6287 30.5086 19.2031C30.1168 17.7775 29.2677 16.5199 28.0919 15.6237C26.916 14.7274 25.4785 14.242 24 14.242C22.5215 14.242 21.084 14.7274 19.9081 15.6237C18.7323 16.5199 17.8832 17.7775 17.4914 19.2031C17.0995 20.6287 17.1866 22.1435 17.7392 23.5148C18.2917 24.8861 19.2792 26.0381 20.55 26.7938C17.8988 27.6549 15.6588 29.4643 14.2594 31.875C14.2007 31.9602 14.1602 32.0565 14.1406 32.1581C14.1209 32.2596 14.1225 32.3641 14.1451 32.465C14.1678 32.5659 14.2111 32.6611 14.2723 32.7444C14.3335 32.8278 14.4113 32.8976 14.5007 32.9495C14.5902 33.0014 14.6895 33.0342 14.7922 33.0459C14.895 33.0575 14.9991 33.0478 15.0979 33.0174C15.1967 32.9869 15.2882 32.9363 15.3665 32.8688C15.4449 32.8013 15.5084 32.7183 15.5531 32.625C16.4104 31.1437 17.6421 29.9139 19.1246 29.059C20.6072 28.204 22.2886 27.754 24 27.754C25.7114 27.754 27.3928 28.204 28.8754 29.059C30.358 29.9139 31.5896 31.1437 32.4469 32.625C32.4916 32.7183 32.5551 32.8013 32.6335 32.8688C32.7118 32.9363 32.8033 32.9869 32.9021 33.0174C33.001 33.0478 33.105 33.0575 33.2078 33.0459C33.3105 33.0342 33.4098 33.0014 33.4993 32.9495C33.5887 32.8976 33.6665 32.8278 33.7277 32.7444C33.7889 32.6611 33.8322 32.5659 33.8549 32.465C33.8775 32.3641 33.8791 32.2596 33.8594 32.1581C33.8398 32.0565 33.7993 31.9602 33.7406 31.875ZM18.75 21C18.75 19.9617 19.0579 18.9466 19.6348 18.0833C20.2117 17.2199 21.0316 16.547 21.9909 16.1496C22.9502 15.7523 24.0058 15.6483 25.0242 15.8509C26.0426 16.0535 26.9781 16.5535 27.7123 17.2877C28.4465 18.0219 28.9466 18.9574 29.1491 19.9758C29.3517 20.9942 29.2477 22.0498 28.8504 23.0091C28.453 23.9684 27.7801 24.7883 26.9167 25.3652C26.0534 25.9421 25.0384 26.25 24 26.25C22.6076 26.25 21.2723 25.6969 20.2877 24.7123C19.3031 23.7278 18.75 22.3924 18.75 21Z" fill="#3CDC86"/>
</svg>
