<svg width="49" height="48" viewBox="0 0 49 48" fill="none" xmlns="http://www.w3.org/2000/svg">
<rect x="0.800049" width="48" height="48" rx="8" fill="#9B53F8" fill-opacity="0.15"/>
<rect x="25.8" y="26" width="2" height="2" rx="1" fill="#9B53F8"/>
<path d="M22.8 26H18.8" stroke="#9B53F8" stroke-linecap="round"/>
<path d="M20.8 24L20.8 28" stroke="#9B53F8" stroke-linecap="round"/>
<rect x="28.8" y="24" width="2" height="2" rx="1" fill="#9B53F8"/>
<path d="M26.8 20V20C26.8 19.5833 26.8 19.3749 26.7655 19.1914C26.6456 18.5546 26.2245 18.0153 25.6358 17.7445C25.4662 17.6665 25.2641 17.616 24.8598 17.5149L24.8 17.5C24.3389 17.3847 24.1083 17.3271 23.9171 17.233C23.3687 16.9631 22.9737 16.4573 22.8449 15.8598C22.8 15.6515 22.8 15.4138 22.8 14.9384V14" stroke="#9B53F8" stroke-linecap="round"/>
<path d="M15.8 26C15.8 23.4412 15.8 22.1618 16.42 21.2804C16.5796 21.0535 16.7658 20.8504 16.9738 20.6763C17.7817 20 18.9545 20 21.3 20H28.3C30.6456 20 31.8184 20 32.6263 20.6763C32.8343 20.8504 33.0205 21.0535 33.1801 21.2804C33.8 22.1618 33.8 23.4412 33.8 26C33.8 28.5588 33.8 29.8382 33.1801 30.7196C33.0205 30.9465 32.8343 31.1496 32.6263 31.3237C31.8184 32 30.6456 32 28.3 32H21.3C18.9545 32 17.7817 32 16.9738 31.3237C16.7658 31.1496 16.5796 30.9465 16.42 30.7196C15.8 29.8382 15.8 28.5588 15.8 26Z" stroke="#9B53F8"/>
</svg>
