<svg width="40" height="40" viewBox="0 0 40 40" fill="none" xmlns="http://www.w3.org/2000/svg">
<path d="M11.472 37.8351C11.0464 38.0877 10.518 37.7775 10.5215 37.2771L10.7148 9.61781C10.7183 9.11678 11.2524 8.80231 11.6745 9.05281L16.7548 12.0685C16.9499 12.1843 17.0686 12.3982 17.0664 12.6298L16.8644 34.263C16.8622 34.4941 16.74 34.708 16.5435 34.8246L11.472 37.8351Z" fill="#ED2D95"/>
<path d="M8.88892 1.75528C8.88892 1.25676 9.43046 0.947735 9.85837 1.20208L30.778 13.6363C31.0078 13.7729 31.1291 14.0377 31.0827 14.3013L30.1177 19.7808C30.0397 20.2237 29.5436 20.4517 29.1576 20.2219L9.20296 8.34166C9.00824 8.22576 8.88892 8.01561 8.88892 7.78869V1.75528Z" fill="#5002B4"/>
<path d="M16.877 28.0133L30.7587 20.4705V12.9277L16.877 20.4705V28.0133Z" fill="#BD17AC"/>
<path d="M16.8769 26.9309C16.8769 27.4191 17.3983 27.7293 17.8261 27.4957L32.386 19.5425C32.5923 19.4298 32.7207 19.2131 32.7207 18.9777V12.9001C32.7207 12.4119 32.1993 12.1017 31.7715 12.3353L17.2116 20.2886C17.0053 20.4012 16.8769 20.6179 16.8769 20.8533V26.9309Z" fill="#BD17AC"/>
<path d="M18.3902 12.969C17.6065 12.5357 16.6367 13.0888 16.6367 13.969V19.5471C16.6367 20.4275 17.6072 20.9807 18.3905 20.5467L23.4233 17.757C24.2176 17.3167 24.2173 16.1973 23.4233 15.7574L18.3898 12.969H18.3902Z" fill="#242731"/>
<path d="M18.209 29.135L29.1993 23.1699" stroke="#BD17AC" stroke-width="1.54939" stroke-linecap="round"/>
<path d="M30.4356 11.5122L19.5938 5.08594" stroke="#5002B4" stroke-width="1.54939" stroke-linecap="round"/>
<path d="M9.21094 22.4665V9.92383" stroke="#ED2D95" stroke-width="1.54939" stroke-linecap="round"/>
</svg>
