<svg width="49" height="48" viewBox="0 0 49 48" fill="none" xmlns="http://www.w3.org/2000/svg">
<rect x="0.400024" width="48" height="48" rx="8" fill="#F25D5D" fill-opacity="0.15"/>
<path d="M26.395 23C26.395 23.3975 26.2766 23.7859 26.0548 24.1158C25.8331 24.4456 25.5181 24.702 25.15 24.852V27.25C25.15 27.4489 25.071 27.6397 24.9304 27.7803C24.7897 27.921 24.5989 28 24.4 28C24.2011 28 24.0103 27.921 23.8697 27.7803C23.729 27.6397 23.65 27.4489 23.65 27.25V24.856C23.313 24.7207 23.0192 24.4963 22.8001 24.2067C22.581 23.9172 22.4449 23.5734 22.4063 23.2124C22.3678 22.8513 22.4282 22.4866 22.5812 22.1573C22.7342 21.8279 22.974 21.5465 23.2748 21.3431C23.5756 21.1397 23.9261 21.0221 24.2887 21.0028C24.6513 20.9835 25.0123 21.0632 25.333 21.2335C25.6537 21.4038 25.922 21.6582 26.1091 21.9694C26.2962 22.2806 26.395 22.6369 26.395 23ZM16.15 17C15.9511 17 15.7603 17.079 15.6197 17.2197C15.479 17.3603 15.4 17.5511 15.4 17.75V23C15.4 28.001 18.358 31.676 24.125 33.948C24.3017 34.0176 24.4983 34.0176 24.675 33.948C30.442 31.676 33.4 28 33.4 23V17.75C33.4 17.5511 33.321 17.3603 33.1804 17.2197C33.0397 17.079 32.8489 17 32.65 17C29.987 17 27.392 16.057 24.85 14.15C24.7202 14.0526 24.5623 14 24.4 14C24.2377 14 24.0798 14.0526 23.95 14.15C21.408 16.057 18.813 17 16.15 17ZM16.9 23V18.478C19.477 18.326 21.98 17.388 24.4 15.678C26.82 17.388 29.323 18.326 31.9 18.478V23C31.9 27.256 29.447 30.379 24.4 32.442C19.353 30.379 16.9 27.256 16.9 23Z" fill="#F25D5D"/>
</svg>
