<svg width="49" height="48" viewBox="0 0 49 48" fill="none" xmlns="http://www.w3.org/2000/svg">
<rect x="0.600098" width="48" height="48" rx="8" fill="#F4A732" fill-opacity="0.15"/>
<path d="M21.6001 18C21.6001 18.394 21.6777 18.7841 21.8285 19.1481C21.9792 19.512 22.2002 19.8427 22.4788 20.1213C22.7574 20.3999 23.0881 20.6209 23.452 20.7716C23.816 20.9224 24.2061 21 24.6001 21C24.9941 21 25.3842 20.9224 25.7481 20.7716C26.1121 20.6209 26.4428 20.3999 26.7214 20.1213C27 19.8427 27.221 19.512 27.3717 19.148C27.5225 18.7841 27.6001 18.394 27.6001 18C27.6001 17.606 27.5225 17.2159 27.3717 16.8519C27.221 16.488 27 16.1573 26.7214 15.8787C26.4428 15.6001 26.1121 15.3791 25.7481 15.2284C25.3842 15.0776 24.9941 15 24.6001 15C24.2061 15 23.816 15.0776 23.452 15.2284C23.0881 15.3791 22.7574 15.6001 22.4788 15.8787C22.2002 16.1573 21.9792 16.488 21.8285 16.852C21.6777 17.2159 21.6001 17.606 21.6001 18L21.6001 18Z" stroke="#F4A732"/>
<path d="M17.0379 25.9015C16.6967 26.0985 16.3977 26.3607 16.1579 26.6733C15.918 26.9858 15.7421 27.3426 15.6401 27.7231C15.5382 28.1037 15.5122 28.5006 15.5636 28.8912C15.615 29.2818 15.7429 29.6584 15.9398 29.9996C16.1368 30.3408 16.3991 30.6398 16.7116 30.8796C17.0242 31.1195 17.3809 31.2954 17.7615 31.3974C18.142 31.4993 18.5389 31.5253 18.9295 31.4739C19.3201 31.4225 19.6967 31.2946 20.0379 31.0977C20.3791 30.9007 20.6781 30.6384 20.918 30.3259C21.1578 30.0133 21.3337 29.6566 21.4357 29.276C21.5377 28.8955 21.5637 28.4986 21.5122 28.108C21.4608 27.7174 21.333 27.3408 21.136 26.9996C20.939 26.6584 20.6767 26.3594 20.3642 26.1195C20.0516 25.8797 19.6949 25.7038 19.3144 25.6018C18.9338 25.4998 18.5369 25.4738 18.1463 25.5252C17.7557 25.5767 17.3791 25.7045 17.0379 25.9015L17.0379 25.9015Z" stroke="#F4A732"/>
<path d="M32.1623 25.9015C32.5035 26.0985 32.8025 26.3607 33.0423 26.6733C33.2822 26.9859 33.4581 27.3426 33.5601 27.7231C33.662 28.1037 33.688 28.5006 33.6366 28.8912C33.5852 29.2818 33.4573 29.6584 33.2604 29.9996C33.0634 30.3408 32.8011 30.6398 32.4886 30.8796C32.176 31.1195 31.8193 31.2954 31.4387 31.3974C31.0582 31.4993 30.6613 31.5253 30.2707 31.4739C29.8801 31.4225 29.5035 31.2946 29.1623 31.0977C28.8211 30.9007 28.5221 30.6384 28.2822 30.3259C28.0424 30.0133 27.8665 29.6566 27.7645 29.276C27.6625 28.8955 27.6365 28.4986 27.688 28.108C27.7394 27.7174 27.8672 27.3408 28.0642 26.9996C28.2612 26.6584 28.5234 26.3594 28.836 26.1195C29.1486 25.8797 29.5053 25.7038 29.8858 25.6018C30.2664 25.4998 30.6633 25.4738 31.0539 25.5252C31.4445 25.5767 31.8211 25.7045 32.1623 25.9015L32.1623 25.9015Z" stroke="#F4A732"/>
<path fill-rule="evenodd" clip-rule="evenodd" d="M21.6026 18.1253C21.6009 18.0837 21.6 18.042 21.6 18.0003C21.6 17.6529 21.6604 17.3086 21.778 16.9825C21.6331 17.0335 21.4895 17.0884 21.3473 17.1473C20.316 17.5745 19.379 18.2006 18.5897 18.9899C17.8004 19.7792 17.1743 20.7162 16.7471 21.7475C16.32 22.7788 16.1001 23.8841 16.1001 25.0003C16.1001 25.5265 16.1489 26.0502 16.2453 26.5648C16.4689 26.2999 16.737 26.0755 17.0378 25.9018C17.074 25.8809 17.1105 25.8609 17.1474 25.8415C17.116 25.5628 17.1001 25.2819 17.1001 25.0003C17.1001 24.0154 17.2941 23.0401 17.671 22.1302C18.0479 21.2202 18.6004 20.3934 19.2968 19.697C19.9606 19.0332 20.7428 18.5002 21.6026 18.1253ZM27.5974 18.1253C28.4573 18.5001 29.2395 19.0332 29.9034 19.697C30.5998 20.3934 31.1523 21.2202 31.5292 22.1302C31.9061 23.0401 32.1001 24.0154 32.1001 25.0003C32.1001 25.282 32.0842 25.5628 32.0528 25.8416C32.0896 25.8609 32.1261 25.881 32.1622 25.9018C32.4631 26.0755 32.7312 26.3 32.9548 26.565C33.0512 26.0503 33.1001 25.5265 33.1001 25.0003C33.1001 23.8841 32.8802 22.7788 32.4531 21.7475C32.0259 20.7162 31.3998 19.7792 30.6105 18.9899C29.8212 18.2006 28.8842 17.5745 27.8529 17.1473C27.7106 17.0884 27.567 17.0334 27.4221 16.9824C27.5397 17.3085 27.6 17.6529 27.6 18.0003C27.6 18.042 27.5992 18.0837 27.5974 18.1253ZM30.1331 31.4529C29.7917 31.3917 29.4632 31.2717 29.1622 31.098C29.1262 31.0772 29.0907 31.0556 29.0556 31.0334C28.5666 31.3945 28.0344 31.6957 27.4702 31.9294C26.5603 32.3063 25.585 32.5003 24.6001 32.5003C23.6152 32.5003 22.6399 32.3063 21.73 31.9294C21.1658 31.6957 20.6335 31.3945 20.1445 31.0334C20.1095 31.0556 20.0739 31.0772 20.0378 31.098C19.7369 31.2717 19.4084 31.3917 19.067 31.4528C19.7474 32.0362 20.5168 32.5093 21.3473 32.8533C22.3786 33.2804 23.4839 33.5003 24.6001 33.5003C25.7163 33.5003 26.8216 33.2804 27.8529 32.8533C28.6834 32.5093 29.4528 32.0362 30.1331 31.4529Z" fill="#F4A732"/>
</svg>
