<svg width="49" height="48" viewBox="0 0 49 48" fill="none" xmlns="http://www.w3.org/2000/svg">
<rect x="0.200012" width="48" height="48" rx="8" fill="#4998EE" fill-opacity="0.15"/>
<path d="M25.9944 16.7436H26.4944V16.7224L26.4926 16.7012L25.9944 16.7436ZM25.9944 16.7436L26.4926 16.7012L26.4919 16.6938L25.9944 16.7436ZM25.9944 16.7436H25.4944V16.7686L25.4969 16.7934L25.9944 16.7436ZM26.1149 17.5258L25.6526 17.7163L25.6526 17.7163L26.1149 17.5258ZM27.4239 18.0681L27.2317 17.6065L27.2317 17.6065L27.4239 18.0681ZM28.0622 17.6002L28.3789 17.9872V17.9872L28.0622 17.6002ZM28.4165 17.3358L28.6505 17.7776L28.6505 17.7776L28.4165 17.3358ZM29.4383 17.3867L29.7151 16.9704L29.7151 16.9704L29.4383 17.3867ZM29.7644 17.6851L30.118 17.3315V17.3315L29.7644 17.6851ZM30.515 18.4356L30.1614 18.7892L30.1671 18.7949L30.173 18.8004L30.515 18.4356ZM30.515 18.4356L30.8685 18.0821L30.8628 18.0764L30.8569 18.0709L30.515 18.4356ZM30.8133 18.7617L31.2296 18.4849L31.2296 18.4849L30.8133 18.7617ZM30.8643 19.7836L30.4224 19.5495V19.5495L30.8643 19.7836ZM30.5999 20.1378L30.2129 19.8211L30.2094 19.8254L30.5999 20.1378ZM30.5999 20.1378L30.9869 20.4544L30.9903 20.4501L30.5999 20.1378ZM30.132 20.776L30.5936 20.9683V20.9683L30.132 20.776ZM30.6742 22.0851L30.4838 22.5474L30.6742 22.0851ZM31.4564 22.2056L31.4067 22.7031L31.4564 22.2056ZM31.8939 22.2691L32.0408 21.7912L31.8939 22.2691ZM32.5804 23.0277L33.0705 22.929V22.929L32.5804 23.0277ZM32.5804 24.9722L32.0902 24.8736V24.8736L32.5804 24.9722ZM31.8938 25.7309L32.0407 26.2088L32.0407 26.2088L31.8938 25.7309ZM31.4565 25.7943L31.5062 26.2918H31.5062L31.4565 25.7943ZM31.4564 25.7943L31.4067 25.2968L31.4067 25.2968L31.4564 25.7943ZM30.6746 25.9148L30.865 26.3771L30.865 26.3771L30.6746 25.9148ZM30.1323 27.224L30.5938 27.0317L30.5938 27.0317L30.1323 27.224ZM30.6 27.862L30.213 28.1786L30.213 28.1786L30.6 27.862ZM30.8643 28.216L31.3061 27.9819L31.3061 27.9819L30.8643 28.216ZM30.8133 29.238L31.2296 29.5149L31.2296 29.5149L30.8133 29.238ZM30.5151 29.564L30.1615 29.2104L30.1615 29.2104L30.5151 29.564ZM29.7645 30.3146L30.118 30.6681L29.7645 30.3146ZM29.7645 30.3146L30.118 30.6681L30.118 30.6681L29.7645 30.3146ZM29.4383 30.6129L29.7152 31.0293L29.7152 31.0293L29.4383 30.6129ZM28.4165 30.6639L28.6505 30.2221H28.6505L28.4165 30.6639ZM28.0623 30.3995L28.3789 30.0125L28.36 29.997L28.3396 29.9835L28.0623 30.3995ZM28.0623 30.3995L27.7457 30.7865L27.7646 30.8019L27.7849 30.8155L28.0623 30.3995ZM27.424 29.9316L27.2318 30.3932L27.424 29.9316ZM26.1149 30.4738L25.6526 30.2834V30.2834L26.1149 30.4738ZM25.9944 31.2562L26.4919 31.3059L25.9944 31.2562ZM25.9309 31.6939L25.4529 31.547L25.4529 31.547L25.9309 31.6939ZM25.1724 32.3803L25.2711 32.8705H25.2711L25.1724 32.3803ZM23.2277 32.3804L23.3264 31.8902H23.3264L23.2277 32.3804ZM22.4692 31.6939L22.9471 31.5469L22.9471 31.5469L22.4692 31.6939ZM22.4057 31.2564L21.9081 31.3061L22.4057 31.2564ZM22.2851 30.4742L21.8228 30.6646L21.8228 30.6646L22.2851 30.4742ZM20.9761 29.932L21.1683 30.3935H21.1683L20.9761 29.932ZM20.3378 30.3999L20.6544 30.7869L20.6544 30.7869L20.3378 30.3999ZM19.9835 30.6643L20.2176 31.1062H20.2176L19.9835 30.6643ZM18.9617 30.6134L18.6849 31.0297L18.6849 31.0297L18.9617 30.6134ZM18.6355 30.315L18.9891 29.9614L18.6355 30.315ZM17.8851 29.5645L17.5315 29.9181H17.5315L17.8851 29.5645ZM17.5867 29.2383L17.1703 29.5151H17.1703L17.5867 29.2383ZM17.5357 28.2165L17.9775 28.4506L17.9775 28.4506L17.5357 28.2165ZM17.8002 27.8622L17.4239 27.533L17.4184 27.5392L17.4132 27.5456L17.8002 27.8622ZM17.8002 27.8622L18.1765 28.1915L18.1819 28.1853L18.1872 28.1789L17.8002 27.8622ZM18.2681 27.2239L17.8065 27.0316L17.8065 27.0316L18.2681 27.2239ZM17.7259 25.9149L17.5354 26.3771L17.5354 26.3772L17.7259 25.9149ZM16.9436 25.7943L16.8939 26.2918L16.8939 26.2918L16.9436 25.7943ZM16.5062 25.7308L16.3592 26.2087L16.3592 26.2088L16.5062 25.7308ZM15.8197 24.9723L15.3295 25.0709L15.8197 24.9723ZM15.8 24.5306H15.3H15.8ZM15.8 23.4694H16.3H15.8ZM15.8197 23.0276L15.3295 22.9289L15.8197 23.0276ZM16.5061 22.2691L16.6531 22.747L16.6531 22.747L16.5061 22.2691ZM16.9437 22.2056L16.9935 22.7031L16.9437 22.2056ZM17.7262 22.085L17.5357 21.6227H17.5357L17.7262 22.085ZM18.2684 20.7761L17.8068 20.9683L17.8068 20.9683L18.2684 20.7761ZM17.8003 20.1375L17.4003 20.4375L17.4066 20.446L17.4133 20.4541L17.8003 20.1375ZM17.8003 20.1375L18.2003 19.8375L18.1939 19.8291L18.1873 19.8209L17.8003 20.1375ZM17.5357 19.7831L17.0938 20.0171L17.5357 19.7831ZM17.5867 18.7614L17.1703 18.4846L17.1703 18.4846L17.5867 18.7614ZM18.9618 17.3863L19.2386 17.8027H19.2386L18.9618 17.3863ZM19.9836 17.3353L20.2176 16.8935L20.2176 16.8935L19.9836 17.3353ZM20.3379 17.5998L20.6545 17.2129V17.2129L20.3379 17.5998ZM20.976 18.0677L20.7838 18.5292V18.5292L20.976 18.0677ZM22.2852 17.5254L22.7476 17.7158L22.2852 17.5254ZM22.4057 16.7435L21.9125 16.6613L21.9098 16.6775L21.9082 16.6938L22.4057 16.7435ZM22.4057 16.7435L22.8989 16.8257L22.9016 16.8095L22.9032 16.7932L22.4057 16.7435ZM22.4691 16.3062L21.9912 16.1594L21.9912 16.1594L22.4691 16.3062ZM23.2278 15.6196L23.3264 16.1098V16.1098L23.2278 15.6196ZM25.1723 15.6197L25.0737 16.1098L25.0737 16.1098L25.1723 15.6197ZM25.9309 16.3062L26.4088 16.1592V16.1592L25.9309 16.3062ZM26.4926 16.7012L26.4926 16.7012L25.4962 16.786L25.4962 16.786L26.4926 16.7012ZM26.4944 16.7436V16.7436H25.4944V16.7436H26.4944ZM26.5772 17.3354C26.5739 17.3273 26.5613 17.2901 26.5449 17.1751C26.5289 17.0632 26.5139 16.9138 26.4919 16.6939L25.4969 16.7934C25.518 17.0046 25.5353 17.1785 25.5549 17.3161C25.574 17.4505 25.6001 17.5889 25.6526 17.7163L26.5772 17.3354ZM27.2317 17.6065C26.9761 17.7129 26.6827 17.5914 26.5772 17.3354L25.6526 17.7163C25.969 18.4843 26.8493 18.849 27.6162 18.5296L27.2317 17.6065ZM27.7456 17.2132C27.5746 17.3532 27.4583 17.4481 27.3679 17.516C27.275 17.5858 27.2398 17.6031 27.2317 17.6065L27.6161 18.5296C27.7434 18.4767 27.8597 18.3972 27.9683 18.3157C28.0794 18.2323 28.2146 18.1215 28.3789 17.9872L27.7456 17.2132ZM28.1824 16.8939C28.0394 16.9697 27.9049 17.0829 27.7456 17.2132L28.3789 17.9872C28.5745 17.8271 28.6174 17.7951 28.6505 17.7776L28.1824 16.8939ZM29.7151 16.9704C29.2569 16.6657 28.6687 16.6363 28.1824 16.8939L28.6505 17.7776C28.8126 17.6917 29.0087 17.7015 29.1614 17.8031L29.7151 16.9704ZM30.118 17.3315C29.9724 17.186 29.8499 17.06 29.7151 16.9704L29.1614 17.8031C29.1926 17.8238 29.2322 17.8599 29.4109 18.0386L30.118 17.3315ZM30.8685 18.0821L30.118 17.3315L29.4109 18.0386L30.1614 18.7892L30.8685 18.0821ZM30.8569 18.0709L30.8569 18.0708L30.173 18.8004L30.173 18.8004L30.8569 18.0709ZM31.2296 18.4849C31.1401 18.3501 31.0141 18.2276 30.8685 18.0821L30.1614 18.7892C30.3401 18.9679 30.3762 19.0074 30.397 19.0386L31.2296 18.4849ZM31.3061 20.0177C31.5637 19.5314 31.5344 18.9431 31.2296 18.4849L30.3969 19.0386C30.4985 19.1913 30.5083 19.3874 30.4224 19.5495L31.3061 20.0177ZM30.9868 20.4544C31.1172 20.2951 31.2304 20.1606 31.3061 20.0177L30.4224 19.5495C30.4049 19.5826 30.3729 19.6256 30.2129 19.8211L30.9868 20.4544ZM30.9903 20.4501L30.9903 20.4501L30.2094 19.8254L30.2094 19.8254L30.9903 20.4501ZM30.5936 20.9683C30.597 20.9602 30.6143 20.925 30.6841 20.8321C30.7519 20.7417 30.8469 20.6255 30.9868 20.4544L30.2129 19.8212C30.0785 19.9854 29.9677 20.1206 29.8843 20.2317C29.8028 20.3403 29.7234 20.4566 29.6704 20.5838L30.5936 20.9683ZM30.8647 21.6228C30.6087 21.5173 30.4871 21.2239 30.5936 20.9683L29.6704 20.5838C29.3511 21.3506 29.7157 22.231 30.4838 22.5474L30.8647 21.6228ZM31.5062 21.7081C31.2862 21.6861 31.1369 21.6711 31.025 21.6551C30.91 21.6387 30.8728 21.6261 30.8647 21.6228L30.4838 22.5474C30.6112 22.5999 30.7496 22.626 30.884 22.6451C31.0215 22.6647 31.1955 22.682 31.4067 22.7031L31.5062 21.7081ZM32.0408 21.7912C31.8861 21.7436 31.711 21.7286 31.5062 21.7081L31.4067 22.7031C31.6582 22.7283 31.7112 22.736 31.7469 22.747L32.0408 21.7912ZM33.0705 22.929C32.962 22.3896 32.5668 21.9529 32.0408 21.7912L31.7469 22.747C31.9223 22.8009 32.054 22.9465 32.0902 23.1263L33.0705 22.929ZM33.1 23.4693C33.1 23.2634 33.1025 23.0877 33.0705 22.929L32.0902 23.1263C32.0976 23.163 32.1 23.2165 32.1 23.4693H33.1ZM33.1 24.5307V23.4693H32.1V24.5307H33.1ZM33.0706 25.0708C33.1025 24.9122 33.1 24.7365 33.1 24.5307H32.1C32.1 24.7834 32.0976 24.8369 32.0902 24.8736L33.0706 25.0708ZM32.0407 26.2088C32.5667 26.0471 32.962 25.6103 33.0706 25.0708L32.0902 24.8736C32.054 25.0534 31.9223 25.199 31.7469 25.2529L32.0407 26.2088ZM31.5062 26.2918C31.711 26.2714 31.8861 26.2563 32.0407 26.2088L31.7469 25.2529C31.7112 25.2639 31.6582 25.2717 31.4067 25.2968L31.5062 26.2918ZM31.5062 26.2918L31.5062 26.2918L31.4067 25.2968L31.4067 25.2968L31.5062 26.2918ZM30.865 26.3771C30.8731 26.3738 30.9102 26.3612 31.0252 26.3448C31.1371 26.3289 31.2864 26.3138 31.5062 26.2918L31.4067 25.2968C31.1956 25.3179 31.0217 25.3352 30.8843 25.3548C30.7499 25.3739 30.6116 25.4 30.4842 25.4524L30.865 26.3771ZM30.5938 27.0317C30.4873 26.7761 30.6089 26.4825 30.865 26.3771L30.4842 25.4524C29.716 25.7688 29.3512 26.6493 29.6707 27.4163L30.5938 27.0317ZM30.9869 27.5453C30.847 27.3744 30.7521 27.2582 30.6843 27.1678C30.6146 27.075 30.5972 27.0398 30.5938 27.0317L29.6707 27.4163C29.7237 27.5434 29.8031 27.6597 29.8846 27.7682C29.9679 27.8792 30.0787 28.0144 30.213 28.1786L30.9869 27.5453ZM31.3061 27.9819C31.2303 27.839 31.1172 27.7046 30.9869 27.5453L30.213 28.1786C30.373 28.3741 30.4049 28.4171 30.4225 28.4501L31.3061 27.9819ZM31.2296 29.5149C31.5344 29.0566 31.5638 28.4682 31.3061 27.9819L30.4224 28.4501C30.5083 28.6122 30.4986 28.8083 30.397 28.9611L31.2296 29.5149ZM30.8686 29.9175C31.0141 29.7721 31.14 29.6496 31.2296 29.5149L30.397 28.9611C30.3763 28.9922 30.3402 29.0318 30.1615 29.2104L30.8686 29.9175ZM30.118 30.6681L30.8686 29.9175L30.1615 29.2104L29.4109 29.961L30.118 30.6681ZM30.118 30.6681L30.118 30.6681L29.4109 29.961L29.4109 29.961L30.118 30.6681ZM29.7152 31.0293C29.8499 30.9397 29.9725 30.8137 30.118 30.6681L29.4109 29.961C29.2322 30.1398 29.1926 30.1759 29.1615 30.1966L29.7152 31.0293ZM28.1824 31.1057C28.6687 31.3633 29.257 31.334 29.7152 31.0293L29.1615 30.1966C29.0087 30.2981 28.8126 30.3079 28.6505 30.2221L28.1824 31.1057ZM27.7457 30.7865C27.905 30.9168 28.0394 31.03 28.1824 31.1057L28.6505 30.2221C28.6175 30.2046 28.5745 30.1726 28.3789 30.0125L27.7457 30.7865ZM27.7849 30.8155L27.7849 30.8155L28.3396 29.9835L28.3396 29.9835L27.7849 30.8155ZM27.2318 30.3932C27.2398 30.3965 27.275 30.4139 27.3679 30.4837C27.4584 30.5515 27.5746 30.6465 27.7457 30.7865L28.3789 30.0125C28.2147 29.8781 28.0794 29.7673 27.9683 29.6839C27.8597 29.6024 27.7434 29.523 27.6162 29.47L27.2318 30.3932ZM26.5772 30.6643C26.6827 30.4083 26.9761 30.2867 27.2318 30.3932L27.6162 29.47C26.8494 29.1507 25.9691 29.5153 25.6526 30.2834L26.5772 30.6643ZM26.4919 31.3059C26.5139 31.086 26.529 30.9366 26.5449 30.8246C26.5613 30.7096 26.5739 30.6724 26.5772 30.6643L25.6526 30.2834C25.6001 30.4108 25.574 30.5492 25.5549 30.6837C25.5353 30.8212 25.518 30.9952 25.4969 31.2064L26.4919 31.3059ZM26.4088 31.8409C26.4564 31.6862 26.4714 31.5109 26.4919 31.3059L25.4969 31.2064C25.4717 31.4581 25.464 31.5112 25.4529 31.547L26.4088 31.8409ZM25.2711 32.8705C25.8104 32.7619 26.2471 32.3668 26.4088 31.8409L25.4529 31.547C25.399 31.7223 25.2535 31.854 25.0737 31.8902L25.2711 32.8705ZM24.7306 32.9C24.9365 32.9 25.1124 32.9025 25.2711 32.8705L25.0737 31.8902C25.037 31.8976 24.9835 31.9 24.7306 31.9V32.9ZM23.6693 32.9H24.7306V31.9H23.6693V32.9ZM23.1291 32.8705C23.2877 32.9025 23.4635 32.9 23.6693 32.9V31.9C23.4166 31.9 23.3631 31.8976 23.3264 31.8902L23.1291 32.8705ZM21.9912 31.8408C22.1529 32.3668 22.5896 32.762 23.1291 32.8705L23.3264 31.8902C23.1466 31.854 23.001 31.7223 22.9471 31.5469L21.9912 31.8408ZM21.9081 31.3061C21.9286 31.511 21.9437 31.6861 21.9912 31.8408L22.9471 31.5469C22.9361 31.5112 22.9283 31.4582 22.9032 31.2066L21.9081 31.3061ZM21.8228 30.6646C21.8262 30.6728 21.8388 30.7099 21.8552 30.8249C21.8711 30.9369 21.8862 31.0862 21.9081 31.3061L22.9032 31.2066C22.8821 30.9955 22.8648 30.8215 22.8452 30.684C22.826 30.5495 22.8 30.4112 22.7474 30.2837L21.8228 30.6646ZM21.1683 30.3935C21.4239 30.2871 21.7174 30.4086 21.8228 30.6646L22.7474 30.2837C22.431 29.5157 21.5507 29.1511 20.7839 29.4704L21.1683 30.3935ZM20.6544 30.7869C20.8255 30.6469 20.9417 30.5519 21.0321 30.484C21.125 30.4143 21.1602 30.3969 21.1683 30.3935L20.7839 29.4704C20.6567 29.5234 20.5404 29.6028 20.4318 29.6843C20.3207 29.7677 20.1854 29.8785 20.0212 30.0129L20.6544 30.7869ZM20.2176 31.1062C20.3606 31.0304 20.4951 30.9172 20.6544 30.7869L20.0212 30.0129C19.8255 30.173 19.7825 30.205 19.7495 30.2225L20.2176 31.1062ZM18.6849 31.0297C19.1431 31.3344 19.7313 31.3637 20.2176 31.1062L19.7495 30.2225C19.5874 30.3083 19.3913 30.2986 19.2386 30.197L18.6849 31.0297ZM18.282 30.6685C18.4275 30.8141 18.5501 30.9401 18.6849 31.0297L19.2386 30.197C19.2074 30.1763 19.1678 30.1402 18.9891 29.9614L18.282 30.6685ZM17.5315 29.9181L18.282 30.6685L18.9891 29.9614L18.2386 29.211L17.5315 29.9181ZM17.1703 29.5151C17.2599 29.6499 17.386 29.7725 17.5315 29.9181L18.2386 29.211C18.0599 29.0322 18.0238 28.9926 18.003 28.9615L17.1703 29.5151ZM17.0939 27.9825C16.8363 28.4687 16.8656 29.057 17.1703 29.5151L18.003 28.9615C17.9015 28.8087 17.8917 28.6127 17.9775 28.4506L17.0939 27.9825ZM17.4132 27.5456C17.2828 27.705 17.1696 27.8395 17.0939 27.9825L17.9775 28.4506C17.9951 28.4175 18.0271 28.3745 18.1872 28.1789L17.4132 27.5456ZM17.4239 27.533L17.4239 27.533L18.1765 28.1915L18.1765 28.1915L17.4239 27.533ZM17.8065 27.0316C17.8032 27.0397 17.7858 27.0749 17.716 27.1679C17.6482 27.2583 17.5532 27.3745 17.4132 27.5456L18.1872 28.1789C18.3216 28.0146 18.4324 27.8793 18.5158 27.7682C18.5973 27.6596 18.6767 27.5433 18.7297 27.4161L17.8065 27.0316ZM17.5354 26.3772C17.7914 26.4826 17.913 26.7761 17.8065 27.0316L18.7297 27.4161C19.049 26.6493 18.6844 25.769 17.9164 25.4526L17.5354 26.3772ZM16.8939 26.2918C17.1138 26.3138 17.2632 26.3289 17.3751 26.3448C17.4902 26.3612 17.5273 26.3738 17.5354 26.3771L17.9164 25.4526C17.7889 25.4 17.6505 25.3739 17.5161 25.3548C17.3786 25.3352 17.2046 25.3179 16.9934 25.2968L16.8939 26.2918ZM16.3592 26.2088C16.5139 26.2563 16.6891 26.2714 16.8939 26.2918L16.9934 25.2968C16.7419 25.2717 16.6889 25.2639 16.6531 25.2529L16.3592 26.2088ZM15.3295 25.0709C15.4381 25.6104 15.8333 26.0471 16.3592 26.2087L16.6531 25.2529C16.4778 25.199 16.346 25.0534 16.3098 24.8736L15.3295 25.0709ZM15.3 24.5306C15.3 24.7365 15.2976 24.9123 15.3295 25.0709L16.3098 24.8736C16.3025 24.8369 16.3 24.7834 16.3 24.5306H15.3ZM15.3 23.4694L15.3 24.5306L16.3 24.5306L16.3 23.4694H15.3ZM15.3295 22.9289C15.2976 23.0876 15.3 23.2635 15.3 23.4694H16.3C16.3 23.2165 16.3025 23.163 16.3099 23.1263L15.3295 22.9289ZM16.3591 21.7912C15.8333 21.9529 15.4381 22.3896 15.3295 22.9289L16.3099 23.1263C16.346 22.9465 16.4778 22.8009 16.6531 22.747L16.3591 21.7912ZM16.894 21.7081C16.6891 21.7286 16.5139 21.7436 16.3591 21.7912L16.6531 22.747C16.6888 22.736 16.7419 22.7283 16.9935 22.7031L16.894 21.7081ZM17.5357 21.6227C17.5276 21.6261 17.4904 21.6387 17.3754 21.6551C17.2634 21.671 17.114 21.6861 16.894 21.7081L16.9935 22.7031C17.2047 22.682 17.3788 22.6647 17.5163 22.6451C17.6508 22.6259 17.7893 22.5998 17.9168 22.5473L17.5357 21.6227ZM17.8068 20.9683C17.9132 21.2239 17.7917 21.5173 17.5357 21.6227L17.9168 22.5473C18.6846 22.2308 19.0492 21.3507 18.73 20.584L17.8068 20.9683ZM17.4133 20.4541C17.5533 20.6253 17.6484 20.7416 17.7163 20.832C17.786 20.925 17.8034 20.9602 17.8068 20.9683L18.73 20.584C18.677 20.4567 18.5975 20.3403 18.516 20.2317C18.4326 20.1205 18.3217 19.9852 18.1873 19.8209L17.4133 20.4541ZM17.4003 20.4375L17.4003 20.4375L18.2003 19.8375L18.2003 19.8375L17.4003 20.4375ZM17.0938 20.0171C17.1696 20.1602 17.2829 20.2947 17.4133 20.4541L18.1873 19.8209C18.0271 19.6251 17.9951 19.5821 17.9776 19.5491L17.0938 20.0171ZM17.1703 18.4846C16.8657 18.9428 16.8364 19.5309 17.0938 20.0171L17.9776 19.5491C17.8917 19.387 17.9015 19.191 18.003 19.0382L17.1703 18.4846ZM17.5316 18.0815C17.386 18.2272 17.2599 18.3498 17.1703 18.4846L18.003 19.0382C18.0238 19.0071 18.0599 18.9675 18.2387 18.7886L17.5316 18.0815ZM18.282 17.3311L17.5316 18.0815L18.2387 18.7886L18.9891 18.0382L18.282 17.3311ZM18.6849 16.9699C18.5502 17.0596 18.4276 17.1856 18.282 17.3311L18.9891 18.0382C19.1679 17.8595 19.2074 17.8234 19.2386 17.8027L18.6849 16.9699ZM20.2176 16.8935C19.7314 16.6359 19.1431 16.6653 18.6849 16.9699L19.2386 17.8027C19.3913 17.7011 19.5874 17.6913 19.7495 17.7772L20.2176 16.8935ZM20.6545 17.2129C20.4951 17.0825 20.3606 16.9693 20.2176 16.8935L19.7495 17.7772C19.7826 17.7947 19.8256 17.8267 20.0213 17.9868L20.6545 17.2129ZM21.1683 17.6061C21.1602 17.6027 21.125 17.5854 21.0321 17.5156C20.9418 17.4478 20.8255 17.3528 20.6545 17.2129L20.0213 17.9868C20.1855 18.1212 20.3207 18.232 20.4318 18.3153C20.5403 18.3968 20.6566 18.4762 20.7838 18.5292L21.1683 17.6061ZM21.8229 17.335C21.7174 17.591 21.4239 17.7126 21.1683 17.6061L20.7838 18.5292C21.5507 18.8487 22.4312 18.484 22.7476 17.7158L21.8229 17.335ZM21.9082 16.6938C21.8862 16.9136 21.8711 17.0629 21.8552 17.1747C21.8388 17.2897 21.8262 17.3269 21.8229 17.335L22.7476 17.7158C22.8 17.5884 22.8261 17.4501 22.8452 17.3157C22.8648 17.1782 22.8821 17.0043 22.9032 16.7933L21.9082 16.6938ZM21.9125 16.6613L21.9125 16.6613L22.8989 16.8257L22.8989 16.8257L21.9125 16.6613ZM21.9912 16.1594C21.9437 16.314 21.9286 16.489 21.9082 16.6937L22.9032 16.7932C22.9283 16.5419 22.9361 16.4889 22.9471 16.4531L21.9912 16.1594ZM23.1292 15.1295C22.5897 15.238 22.1529 15.6333 21.9912 16.1594L22.9471 16.4531C23.001 16.2778 23.1466 16.146 23.3264 16.1098L23.1292 15.1295ZM23.6692 15.1C23.4635 15.1 23.2878 15.0976 23.1292 15.1295L23.3264 16.1098C23.3631 16.1024 23.4166 16.1 23.6692 16.1V15.1ZM24.7307 15.1H23.6692V16.1H24.7307V15.1ZM25.271 15.1295C25.1123 15.0976 24.9365 15.1 24.7307 15.1V16.1C24.9835 16.1 25.037 16.1025 25.0737 16.1098L25.271 15.1295ZM26.4088 16.1592C26.2471 15.6333 25.8104 15.238 25.271 15.1295L25.0737 16.1098C25.2535 16.146 25.3991 16.2778 25.453 16.4531L26.4088 16.1592ZM26.4919 16.6938C26.4714 16.489 26.4564 16.3139 26.4088 16.1592L25.453 16.4531C25.464 16.4888 25.4717 16.5419 25.4969 16.7934L26.4919 16.6938ZM27.06 24C27.06 25.5795 25.7796 26.86 24.2 26.86V27.86C26.3319 27.86 28.06 26.1318 28.06 24H27.06ZM24.2 21.14C25.7796 21.14 27.06 22.4204 27.06 24H28.06C28.06 21.8682 26.3319 20.14 24.2 20.14V21.14ZM21.34 24C21.34 22.4204 22.6205 21.14 24.2 21.14V20.14C22.0682 20.14 20.34 21.8682 20.34 24H21.34ZM24.2 26.86C22.6205 26.86 21.34 25.5795 21.34 24H20.34C20.34 26.1318 22.0682 27.86 24.2 27.86V26.86Z" fill="#4998EE"/>
</svg>
